<?xml version="1.0" encoding="UTF-8" standalone="no"?>
<svg
   xmlns:dc="http://purl.org/dc/elements/1.1/"
   xmlns:cc="http://creativecommons.org/ns#"
   xmlns:rdf="http://www.w3.org/1999/02/22-rdf-syntax-ns#"
   xmlns:svg="http://www.w3.org/2000/svg"
   xmlns="http://www.w3.org/2000/svg"
   xmlns:sodipodi="http://sodipodi.sourceforge.net/DTD/sodipodi-0.dtd"
   xmlns:inkscape="http://www.inkscape.org/namespaces/inkscape"
   version="1.1"
   viewBox="0 0 552.37115 537.69074"
   xml:space="preserve"
   id="svg2"
   inkscape:version="0.91 r13725"
   sodipodi:docname="connection-cloud-community-cloud-computing-sign-communication-network-icon.svg"
   width="552.37115"
   height="537.69073"><metadata
     id="metadata13"><rdf:RDF><cc:Work
         rdf:about=""><dc:format>image/svg+xml</dc:format><dc:type
           rdf:resource="http://purl.org/dc/dcmitype/StillImage" /><dc:title></dc:title></cc:Work></rdf:RDF></metadata><defs
     id="defs11" /><sodipodi:namedview
     pagecolor="#ffffff"
     bordercolor="#666666"
     borderopacity="1"
     objecttolerance="10"
     gridtolerance="10"
     guidetolerance="10"
     inkscape:pageopacity="0"
     inkscape:pageshadow="2"
     inkscape:window-width="1860"
     inkscape:window-height="1059"
     id="namedview9"
     showgrid="false"
     fit-margin-top="0"
     fit-margin-left="0"
     fit-margin-right="0"
     fit-margin-bottom="0"
     inkscape:zoom="0.81741544"
     inkscape:cx="313.43652"
     inkscape:cy="142.36382"
     inkscape:window-x="60"
     inkscape:window-y="21"
     inkscape:window-maximized="1"
     inkscape:current-layer="svg2" /><ellipse
     style="fill:#c2d5d8"
     cx="276.18558"
     cy="268.84537"
     id="circle3"
     rx="276.18558"
     ry="268.84537" /><path
     inkscape:connector-curvature="0"
     style="fill:#b7c9cc"
     d="m 514.73651,345.31526 c -0.292,-0.824 -0.648,-1.62 -0.984,-2.428 -0.292,-0.836 -0.652,-1.64 -0.992,-2.456 -0.292,-0.836 -0.652,-1.636 -0.992,-2.452 -0.292,-0.84 -0.656,-1.648 -0.996,-2.468 -0.292,-0.828 -0.652,-1.628 -0.988,-2.44 -0.292,-0.836 -0.652,-1.64 -0.992,-2.456 -0.288,-0.836 -0.652,-1.636 -0.992,-2.452 -0.288,-0.84 -0.656,-1.648 -0.996,-2.468 -0.288,-0.828 -0.652,-1.628 -0.988,-2.44 -0.288,-0.836 -0.652,-1.64 -0.988,-2.456 -0.296,-0.848 -0.664,-1.664 -1.012,-2.492 -0.284,-0.82 -0.644,-1.612 -0.976,-2.416 -0.296,-0.84 -0.656,-1.648 -0.996,-2.468 -0.292,-0.828 -0.652,-1.628 -0.988,-2.436 -0.292,-0.836 -0.652,-1.64 -0.992,-2.456 -0.292,-0.836 -0.652,-1.64 -0.992,-2.456 -0.296,-0.84 -0.656,-1.648 -0.996,-2.468 -0.292,-0.828 -0.652,-1.628 -0.988,-2.436 -0.292,-0.836 -0.652,-1.64 -0.992,-2.456 -0.292,-0.836 -0.652,-1.64 -0.992,-2.456 -0.296,-0.84 -0.656,-1.648 -0.996,-2.468 -0.292,-0.828 -0.652,-1.624 -0.988,-2.436 -0.292,-0.836 -0.652,-1.64 -0.992,-2.456 -0.292,-0.836 -0.652,-1.64 -0.992,-2.456 -0.292,-0.836 -0.652,-1.64 -0.992,-2.456 -0.292,-0.84 -0.656,-1.644 -0.996,-2.464 -0.288,-0.828 -0.652,-1.628 -0.988,-2.44 -0.288,-0.836 -0.652,-1.64 -0.992,-2.456 -0.288,-0.836 -0.648,-1.64 -0.988,-2.452 -0.296,-0.84 -0.656,-1.648 -0.996,-2.468 -0.292,-0.828 -0.652,-1.628 -0.988,-2.44 -0.292,-0.836 -0.652,-1.64 -0.992,-2.456 -0.292,-0.836 -0.652,-1.636 -0.992,-2.452 -0.296,-0.84 -0.656,-1.648 -0.996,-2.468 -0.292,-0.828 -0.652,-1.628 -0.988,-2.44 -0.296,-0.848 -0.664,-1.668 -1.008,-2.496 -0.288,-0.82 -0.648,-1.612 -0.98,-2.416 -0.292,-0.836 -0.652,-1.64 -0.992,-2.456 -0.292,-0.84 -0.656,-1.648 -0.996,-2.468 -0.292,-0.828 -0.652,-1.628 -0.988,-2.436 -0.292,-0.84 -0.652,-1.64 -0.992,-2.456 -0.292,-0.836 -0.652,-1.64 -0.992,-2.456 -0.292,-0.84 -0.656,-1.648 -0.996,-2.468 -0.292,-0.828 -0.652,-1.628 -0.988,-2.436 -0.292,-0.836 -0.652,-1.64 -0.992,-2.456 -0.288,-0.836 -0.652,-1.64 -0.992,-2.456 -0.288,-0.84 -0.656,-1.648 -0.996,-2.468 -0.288,-0.828 -0.648,-1.628 -0.988,-2.436 -0.288,-0.836 -0.648,-1.63999 -0.988,-2.45599 -0.292,-0.836 -0.652,-1.64 -0.992,-2.456 -0.292,-0.836 -0.652,-1.64 -0.992,-2.456 -0.292,-0.84 -0.656,-1.644 -0.996,-2.464 -0.292,-0.828 -0.652,-1.628 -0.988,-2.44 -0.292,-0.836 -0.652,-1.64 -0.992,-2.456 -0.292,-0.836 -0.652,-1.64 -0.992,-2.456 -0.292,-0.84 -0.656,-1.644 -0.996,-2.464 -0.292,-0.828 -0.652,-1.628 -0.988,-2.44 -0.292,-0.836 -0.652,-1.64 -0.992,-2.456 -0.292,-0.836 -0.652,-1.64 -0.992,-2.452 -0.292,-0.844 -0.656,-1.648 -0.996,-2.468 -0.296,-0.84 -0.66,-1.656 -1.004,-2.48 -0.288,-0.82 -0.648,-1.612 -0.98,-2.416 -0.292,-0.836 -0.652,-1.64 -0.992,-2.452 -0.288,-0.836 -0.652,-1.64 -0.992,-2.456 -0.292,-0.84 -0.656,-1.648 -0.996,-2.468 -0.288,-0.828 -0.652,-1.628 -0.988,-2.44 -0.288,-0.836 -0.648,-1.64 -0.988,-2.452 -0.292,-0.836 -0.652,-1.64 -0.992,-2.456 -0.296,-0.84 -0.656,-1.648 -0.996,-2.468 -0.292,-0.828 -0.652,-1.628 -0.988,-2.44 -0.292,-0.836 -0.652,-1.64 -0.992,-2.452 -0.292,-0.836 -0.652,-1.64 -0.992,-2.456 -0.296,-0.84 -0.656,-1.648 -0.996,-2.468 -0.292,-0.828 -0.652,-1.628 -0.988,-2.44 -0.292,-0.836 -0.652,-1.64 -0.992,-2.452 -0.292,-0.836 -0.652,-1.64 -0.992,-2.456 -0.292,-0.836 -0.652,-1.64 -0.992,-2.456 -0.296,-0.84 -0.656,-1.648 -0.996,-2.468 -0.292,-0.828 -0.652,-1.624 -0.988,-2.436 -0.292,-0.836 -0.652,-1.64 -0.992,-2.456 -0.292,-0.836 -0.652,-1.64 -0.992,-2.456 -0.296,-0.836 -0.656,-1.648 -0.996,-2.468 -0.288,-0.828 -0.652,-1.624 -0.988,-2.436 -0.288,-0.836 -0.652,-1.64 -0.992,-2.456 -0.288,-0.836 -0.648,-1.636 -0.992,-2.456 -0.5,-1.416 -1.064,-2.804 -1.688,-4.172 -0.092,-0.248 -0.2,-0.492 -0.296,-0.74 -0.292,-0.836 -0.652,-1.64 -0.992,-2.456 -0.292,-0.836 -0.652,-1.64 -0.992,-2.452 -0.292,-0.844 -0.656,-1.648 -0.996,-2.468 -0.292,-0.828 -0.652,-1.628 -0.988,-2.44 -0.292,-0.836 -0.652,-1.64 -0.992,-2.456 -0.292,-0.836 -0.652,-1.64 -0.992,-2.452 -0.292,-0.836 -0.652,-1.64 -0.992,-2.46 -0.292,-0.836 -0.656,-1.644 -0.996,-2.464 -0.292,-0.828 -0.652,-1.628 -0.988,-2.44 -0.292,-0.836 -0.652,-1.64 -0.992,-2.452 -6.888,-19.600003 -26.584,-34.400004 -47.576,-34.400004 l -12,0 -116,0 -36,0 c -1.344,0 -2.68,0.08 -4.008,0.204 -0.468,0.04 -0.928,0.1 -1.404,0.156 -0.852,0.104 -1.704,0.236 -2.548,0.384001 -0.548,0.092 -1.092,0.196 -1.636,0.312 -0.8,0.172 -1.592,0.376 -2.392,0.584 -0.504,0.132 -1.008,0.252 -1.504,0.4 -0.012,0.008 -0.024,0.008 -0.032,0.008 0,0 0,0 0,0.008 -18.324,5.552 -33.412,21.804 -36.192,40.956003 l -28.26,183.78399 c -1.316,4.168 -2.032,8.6 -2.032,13.204 l 0,20 c 0,6.376 1.396,12.42 3.844,17.904 0.312,0.828 0.628,1.648 0.992,2.452 0.312,0.832 0.632,1.66 0.996,2.468 0.308,0.824 0.624,1.64 0.988,2.44 0.308,0.828 0.628,1.652 0.988,2.452 0.312,0.828 0.632,1.652 0.992,2.456 0.312,0.828 0.632,1.652 0.992,2.456 0.312,0.832 0.636,1.66 0.996,2.468 0.312,0.824 0.628,1.64 0.988,2.436 0.312,0.828 0.632,1.652 0.992,2.456 0.312,0.828 0.632,1.652 0.992,2.456 0.316,0.844 0.644,1.684 1.016,2.504 0.304,0.812 0.616,1.616 0.972,2.408 0.312,0.828 0.632,1.652 0.992,2.456 0.312,0.828 0.632,1.652 0.992,2.456 0.312,0.832 0.636,1.66 0.996,2.468 0.312,0.824 0.628,1.64 0.988,2.436 0.312,0.828 0.632,1.652 0.992,2.456 0.312,0.828 0.632,1.652 0.992,2.456 0.312,0.832 0.636,1.66 0.996,2.468 0.312,0.824 0.624,1.636 0.988,2.436 0.312,0.828 0.628,1.652 0.992,2.456 0.308,0.828 0.628,1.652 0.992,2.456 0.308,0.828 0.628,1.652 0.988,2.456 0.312,0.832 0.636,1.656 0.996,2.464 0.312,0.824 0.628,1.64 0.988,2.44 0.312,0.828 0.632,1.652 0.992,2.456 0.312,0.828 0.632,1.652 0.992,2.452 0.312,0.832 0.636,1.66 0.996,2.468 0.312,0.824 0.628,1.64 0.988,2.44 0.312,0.828 0.632,1.652 0.992,2.456 0.312,0.828 0.632,1.652 0.992,2.452 0.312,0.832 0.636,1.66 0.996,2.468 0.312,0.824 0.628,1.64 0.988,2.44 0.312,0.828 0.632,1.652 0.992,2.456 0.312,0.828 0.632,1.652 0.992,2.452 0.316,0.84 0.64,1.676 1.008,2.492 0.308,0.82 0.628,1.636 0.984,2.432 0.312,0.824 0.628,1.64 0.988,2.436 0.312,0.828 0.628,1.652 0.992,2.456 0.312,0.828 0.628,1.652 0.992,2.456 0.308,0.832 0.632,1.66 0.996,2.468 0.128,0.352 0.28,0.692 0.416,1.04 35.08,17.964 74.848,28.232 117.036,28.232 97.764,0 182.704,-54.824 225.824,-135.388 z"
     id="path5" /><g
     style="fill:#406a80;fill-opacity:1"
     id="cloud-network-sign_1_"
     transform="translate(34.57037,56.290912)"><path
       inkscape:connector-curvature="0"
       id="path6"
       style="fill:#406a80;fill-opacity:1"
       d="m 404.169,119.452 c -4.312,0 -8.517,0.365 -12.668,0.944 C 387.832,53.29 332.279,0 264.283,0 208.762,0 166.488,40.396 149.003,89.932 139.682,87.508 124.976,81.286 114.882,81.286 51.434,81.286 0,132.709 0,196.19 c 0,63.459 51.434,114.882 114.882,114.882 3.133,0 6.672,0 10.426,0 -13.086,23.706 -7.755,54.17 14.031,71.761 10.071,8.131 22.772,12.615 35.698,12.615 17.323,0 33.456,-7.723 44.29,-21.174 12.281,-15.21 15.575,-34.819 10.222,-52.324 6.169,1.609 12.583,2.424 19.094,2.424 12.368,0 24.468,-3.025 35.227,-8.667 0.064,14.331 6.371,28.383 18.117,37.865 8.666,6.994 19.608,10.877 30.764,10.877 0.01,0 0.01,0 0.01,0 14.9,0 28.812,-6.651 38.165,-18.257 8.046,-9.954 11.746,-22.397 10.63,-35.119 9.676,0 17.453,0 22.612,0 52.925,0 95.831,-42.885 95.831,-95.81 10e-4,-52.904 -42.905,-95.811 -95.83,-95.811 z m -47.38,215.326 c -10.716,13.258 -30.13,15.339 -43.389,4.634 -8.774,-7.08 -12.506,-17.935 -10.994,-28.34 0.579,-4.011 1.877,-7.959 4.076,-11.585 l -15.05,-12.227 c -19.715,21.753 -52.656,25.228 -76.513,8.088 l -12.69,15.661 c 0.022,0.021 0.054,0.064 0.076,0.064 13.944,13.816 15.468,36.192 2.875,51.788 -13.408,16.669 -37.78,19.244 -54.427,5.814 -16.626,-13.408 -19.243,-37.779 -5.814,-54.406 0.955,-1.201 2.06,-2.145 3.111,-3.196 13.098,-12.872 33.532,-14.888 48.818,-4.462 l 12.668,-15.661 c -21.55,-19.78 -24.907,-52.667 -7.691,-76.416 l -15.361,-12.487 c -9.492,8.217 -23.781,8.753 -33.896,0.601 -11.36,-9.182 -13.14,-25.829 -3.958,-37.221 9.182,-11.371 25.829,-13.151 37.221,-3.97 10.77,8.71 12.807,24.092 5.17,35.334 l 15.2,12.357 c 19.726,-21.367 52.346,-24.714 76.009,-7.788 l 12.143,-14.973 c -11.916,-11.8 -13.343,-30.85 -2.585,-44.194 11.477,-14.201 32.287,-16.433 46.521,-4.977 14.213,11.499 16.433,32.309 4.967,46.532 -10.716,13.259 -29.456,15.94 -43.465,6.973 l -12.185,14.995 c 21.581,19.672 25.079,52.368 8.173,76.159 l 14.953,12.143 c 10.984,-11.328 28.898,-12.744 41.406,-2.638 6.328,5.105 10.028,12.227 11.091,19.693 1.145,8.173 -0.883,16.776 -6.46,23.705 z" /></g><g
     id="Layer_1"
     transform="translate(8.8796387,74.641434)" /><path
     inkscape:connector-curvature="0"
     style="fill:#ffffff"
     d="m 272.24534,334.70037 c -0.74738,0 -1.46656,-0.26708 -1.99396,-0.74527 L 244.8685,311.06283 c -1.10275,-0.99455 -1.10275,-2.60209 0,-3.59663 1.10274,-0.99455 2.88519,-0.99455 3.98793,0 l 23.2761,20.99221 45.95711,-46.32633 c 1.03788,-1.04541 2.8175,-1.13444 3.98229,-0.1984 1.15915,0.93604 1.25787,2.54359 0.21999,3.59155 l -47.94544,48.32813 c -0.52176,0.52143 -1.24658,0.82666 -2.02499,0.84701 -0.0226,0 -0.0508,0 -0.0761,0 z"
     id="path21" /></svg>