<?xml version="1.0" encoding="iso-8859-1"?>
<!-- Generator: Adobe Illustrator 19.0.0, SVG Export Plug-In . SVG Version: 6.00 Build 0)  -->
<svg version="1.1" id="Layer_1" xmlns="http://www.w3.org/2000/svg" xmlns:xlink="http://www.w3.org/1999/xlink" x="0px" y="0px"
	 viewBox="0 0 512 512" style="enable-background:new 0 0 512 512;" xml:space="preserve">
<circle style="fill:#C2D5D8;" cx="256" cy="256" r="256"/>
<path style="fill:#B7C9CC;" d="M481.824,376.612c-0.292-0.824-0.648-1.62-0.984-2.428c-0.292-0.836-0.652-1.64-0.992-2.456
	c-0.292-0.836-0.652-1.636-0.992-2.452c-0.292-0.84-0.656-1.648-0.996-2.468c-0.292-0.828-0.652-1.628-0.988-2.44
	c-0.292-0.836-0.652-1.64-0.992-2.456c-0.288-0.836-0.652-1.636-0.992-2.452c-0.288-0.84-0.656-1.648-0.996-2.468
	c-0.288-0.828-0.652-1.628-0.988-2.44c-0.288-0.836-0.652-1.64-0.988-2.456c-0.296-0.848-0.664-1.664-1.012-2.492
	c-0.284-0.82-0.644-1.612-0.976-2.416c-0.296-0.84-0.656-1.648-0.996-2.468c-0.292-0.828-0.652-1.628-0.988-2.436
	c-0.292-0.836-0.652-1.64-0.992-2.456c-0.292-0.836-0.652-1.64-0.992-2.456c-0.296-0.84-0.656-1.648-0.996-2.468
	c-0.292-0.828-0.652-1.628-0.988-2.436c-0.292-0.836-0.652-1.64-0.992-2.456c-0.292-0.836-0.652-1.64-0.992-2.456
	c-0.296-0.84-0.656-1.648-0.996-2.468c-0.292-0.828-0.652-1.624-0.988-2.436c-0.292-0.836-0.652-1.64-0.992-2.456
	c-0.292-0.836-0.652-1.64-0.992-2.456c-0.292-0.836-0.652-1.64-0.992-2.456c-0.292-0.84-0.656-1.644-0.996-2.464
	c-0.288-0.828-0.652-1.628-0.988-2.44c-0.288-0.836-0.652-1.64-0.992-2.456c-0.288-0.836-0.648-1.64-0.988-2.452
	c-0.296-0.84-0.656-1.648-0.996-2.468c-0.292-0.828-0.652-1.628-0.988-2.44c-0.292-0.836-0.652-1.64-0.992-2.456
	c-0.292-0.836-0.652-1.636-0.992-2.452c-0.296-0.84-0.656-1.648-0.996-2.468c-0.292-0.828-0.652-1.628-0.988-2.44
	c-0.296-0.848-0.664-1.668-1.008-2.496c-0.288-0.82-0.648-1.612-0.98-2.416c-0.292-0.836-0.652-1.64-0.992-2.456
	c-0.292-0.84-0.656-1.648-0.996-2.468c-0.292-0.828-0.652-1.628-0.988-2.436c-0.292-0.84-0.652-1.64-0.992-2.456
	c-0.292-0.836-0.652-1.64-0.992-2.456c-0.292-0.84-0.656-1.648-0.996-2.468c-0.292-0.828-0.652-1.628-0.988-2.436
	c-0.292-0.836-0.652-1.64-0.992-2.456c-0.288-0.836-0.652-1.64-0.992-2.456c-0.288-0.84-0.656-1.648-0.996-2.468
	c-0.288-0.828-0.648-1.628-0.988-2.436c-0.288-0.836-0.648-1.64-0.988-2.456c-0.292-0.836-0.652-1.64-0.992-2.456
	c-0.292-0.836-0.652-1.64-0.992-2.456c-0.292-0.84-0.656-1.644-0.996-2.464c-0.292-0.828-0.652-1.628-0.988-2.44
	c-0.292-0.836-0.652-1.64-0.992-2.456c-0.292-0.836-0.652-1.64-0.992-2.456c-0.292-0.84-0.656-1.644-0.996-2.464
	c-0.292-0.828-0.652-1.628-0.988-2.44c-0.292-0.836-0.652-1.64-0.992-2.456c-0.292-0.836-0.652-1.64-0.992-2.452
	c-0.292-0.844-0.656-1.648-0.996-2.468c-0.296-0.84-0.66-1.656-1.004-2.48c-0.288-0.82-0.648-1.612-0.98-2.416
	c-0.292-0.836-0.652-1.64-0.992-2.452c-0.288-0.836-0.652-1.64-0.992-2.456c-0.292-0.84-0.656-1.648-0.996-2.468
	c-0.288-0.828-0.652-1.628-0.988-2.44c-0.288-0.836-0.648-1.64-0.988-2.452c-0.292-0.836-0.652-1.64-0.992-2.456
	c-0.296-0.84-0.656-1.648-0.996-2.468c-0.292-0.828-0.652-1.628-0.988-2.44c-0.292-0.836-0.652-1.64-0.992-2.452
	c-0.292-0.836-0.652-1.64-0.992-2.456c-0.296-0.84-0.656-1.648-0.996-2.468c-0.292-0.828-0.652-1.628-0.988-2.44
	c-0.292-0.836-0.652-1.64-0.992-2.452c-0.292-0.836-0.652-1.64-0.992-2.456c-0.292-0.836-0.652-1.64-0.992-2.456
	c-0.296-0.84-0.656-1.648-0.996-2.468c-0.292-0.828-0.652-1.624-0.988-2.436c-0.292-0.836-0.652-1.64-0.992-2.456
	c-0.292-0.836-0.652-1.64-0.992-2.456c-0.296-0.836-0.656-1.648-0.996-2.468c-0.288-0.828-0.652-1.624-0.988-2.436
	c-0.288-0.836-0.652-1.64-0.992-2.456c-0.288-0.836-0.648-1.636-0.992-2.456c-0.5-1.416-1.064-2.804-1.688-4.172
	c-0.092-0.248-0.2-0.492-0.296-0.74c-0.292-0.836-0.652-1.64-0.992-2.456c-0.292-0.836-0.652-1.64-0.992-2.452
	c-0.292-0.844-0.656-1.648-0.996-2.468c-0.292-0.828-0.652-1.628-0.988-2.44c-0.292-0.836-0.652-1.64-0.992-2.456
	c-0.292-0.836-0.652-1.64-0.992-2.452c-0.292-0.836-0.652-1.64-0.992-2.46c-0.292-0.836-0.656-1.644-0.996-2.464
	c-0.292-0.828-0.652-1.628-0.988-2.44c-0.292-0.836-0.652-1.64-0.992-2.452c-6.888-19.6-26.584-34.4-47.576-34.4h-12h-116h-36
	c-1.344,0-2.68,0.08-4.008,0.204c-0.468,0.04-0.928,0.1-1.404,0.156c-0.852,0.104-1.704,0.236-2.548,0.384
	c-0.548,0.092-1.092,0.196-1.636,0.312c-0.8,0.172-1.592,0.376-2.392,0.584c-0.504,0.132-1.008,0.252-1.504,0.4
	c-0.012,0.008-0.024,0.008-0.032,0.008c0,0,0,0,0,0.008c-18.324,5.552-33.412,21.804-36.192,40.956L96.06,330.984
	c-1.316,4.168-2.032,8.6-2.032,13.204v20c0,6.376,1.396,12.42,3.844,17.904c0.312,0.828,0.628,1.648,0.992,2.452
	c0.312,0.832,0.632,1.66,0.996,2.468c0.308,0.824,0.624,1.64,0.988,2.44c0.308,0.828,0.628,1.652,0.988,2.452
	c0.312,0.828,0.632,1.652,0.992,2.456c0.312,0.828,0.632,1.652,0.992,2.456c0.312,0.832,0.636,1.66,0.996,2.468
	c0.312,0.824,0.628,1.64,0.988,2.436c0.312,0.828,0.632,1.652,0.992,2.456c0.312,0.828,0.632,1.652,0.992,2.456
	c0.316,0.844,0.644,1.684,1.016,2.504c0.304,0.812,0.616,1.616,0.972,2.408c0.312,0.828,0.632,1.652,0.992,2.456
	c0.312,0.828,0.632,1.652,0.992,2.456c0.312,0.832,0.636,1.66,0.996,2.468c0.312,0.824,0.628,1.64,0.988,2.436
	c0.312,0.828,0.632,1.652,0.992,2.456c0.312,0.828,0.632,1.652,0.992,2.456c0.312,0.832,0.636,1.66,0.996,2.468
	c0.312,0.824,0.624,1.636,0.988,2.436c0.312,0.828,0.628,1.652,0.992,2.456c0.308,0.828,0.628,1.652,0.992,2.456
	c0.308,0.828,0.628,1.652,0.988,2.456c0.312,0.832,0.636,1.656,0.996,2.464c0.312,0.824,0.628,1.64,0.988,2.44
	c0.312,0.828,0.632,1.652,0.992,2.456c0.312,0.828,0.632,1.652,0.992,2.452c0.312,0.832,0.636,1.66,0.996,2.468
	c0.312,0.824,0.628,1.64,0.988,2.44c0.312,0.828,0.632,1.652,0.992,2.456c0.312,0.828,0.632,1.652,0.992,2.452
	c0.312,0.832,0.636,1.66,0.996,2.468c0.312,0.824,0.628,1.64,0.988,2.44c0.312,0.828,0.632,1.652,0.992,2.456
	c0.312,0.828,0.632,1.652,0.992,2.452c0.316,0.84,0.64,1.676,1.008,2.492c0.308,0.82,0.628,1.636,0.984,2.432
	c0.312,0.824,0.628,1.64,0.988,2.436c0.312,0.828,0.628,1.652,0.992,2.456c0.312,0.828,0.628,1.652,0.992,2.456
	c0.308,0.832,0.632,1.66,0.996,2.468c0.128,0.352,0.28,0.692,0.416,1.04C174.044,501.732,213.812,512,256,512
	C353.764,512,438.704,457.176,481.824,376.612z"/>
<path style="fill:#406A80;" d="M414,360H98c-1.16,0-2.264-0.504-3.024-1.384C94.216,357.74,94,352,94,344l30.296-196.988
	C127.736,123.296,150.036,104,174,104h164c23.964,0,46.26,19.296,49.704,43.012L418,344c0,4-0.216,13.744-0.976,14.616
	C416.264,359.496,415.16,360,414,360z"/>
<g>
	<path style="fill:#325366;" d="M387.704,147.012C384.26,123.296,361.964,104,338,104h-12c23.964,0,46.26,19.296,49.704,43.012
		L406,344c0,4-0.216,13.744-0.976,14.616C404.268,359.496,403.16,360,402,360h12c1.16,0,2.264-0.504,3.024-1.384
		C417.784,357.74,418,348,418,344L387.704,147.012z"/>
	<path style="fill:#325366;" d="M374,408H138c-24.26,0-44-19.74-44-44v-20c0-24.26,19.74-44,44-44h236c24.26,0,44,19.74,44,44v20
		C418,388.26,398.26,408,374,408z"/>
</g>
<path style="fill:#406A80;" d="M138,400c-19.852,0-36-16.148-36-36v-20c0-19.852,16.148-36,36-36h236c19.852,0,36,16.148,36,36v20
	c0,19.852-16.148,36-36,36H138z"/>
<circle style="fill:#F5F5F5;" cx="347.32" cy="354" r="20"/>
<circle style="fill:#406A80;" cx="347.32" cy="354" r="12"/>
<path style="fill:#FFFFFF;" d="M236,252c-1.06,0-2.08-0.42-2.828-1.172l-36-36c-1.564-1.564-1.564-4.092,0-5.656
	s4.092-1.564,5.656,0l33.012,33.012l65.18-72.852c1.472-1.644,3.996-1.784,5.648-0.312c1.644,1.472,1.784,4,0.312,5.648l-68,76
	c-0.74,0.82-1.768,1.3-2.872,1.332C236.076,252,236.036,252,236,252z"/>
<g>
</g>
<g>
</g>
<g>
</g>
<g>
</g>
<g>
</g>
<g>
</g>
<g>
</g>
<g>
</g>
<g>
</g>
<g>
</g>
<g>
</g>
<g>
</g>
<g>
</g>
<g>
</g>
<g>
</g>
</svg>
