<?xml version="1.0" encoding="UTF-8" standalone="no"?>
<!-- Generator: Adobe Illustrator 18.0.0, SVG Export Plug-In . SVG Version: 6.00 Build 0)  -->

<svg
   xmlns:dc="http://purl.org/dc/elements/1.1/"
   xmlns:cc="http://creativecommons.org/ns#"
   xmlns:rdf="http://www.w3.org/1999/02/22-rdf-syntax-ns#"
   xmlns:svg="http://www.w3.org/2000/svg"
   xmlns="http://www.w3.org/2000/svg"
   xmlns:sodipodi="http://sodipodi.sourceforge.net/DTD/sodipodi-0.dtd"
   xmlns:inkscape="http://www.inkscape.org/namespaces/inkscape"
   version="1.1"
   id="Capa_1"
   x="0px"
   y="0px"
   viewBox="0 0 492.838 492.838"
   style="enable-background:new 0 0 492.838 492.838;"
   xml:space="preserve"
   inkscape:version="0.91 r13725"
   sodipodi:docname="Duplicate Content icon.svg"><metadata
     id="metadata67"><rdf:RDF><cc:Work
         rdf:about=""><dc:format>image/svg+xml</dc:format><dc:type
           rdf:resource="http://purl.org/dc/dcmitype/StillImage" /><dc:title></dc:title></cc:Work></rdf:RDF></metadata><defs
     id="defs65" /><sodipodi:namedview
     pagecolor="#ffffff"
     bordercolor="#666666"
     borderopacity="1"
     objecttolerance="10"
     gridtolerance="10"
     guidetolerance="10"
     inkscape:pageopacity="0"
     inkscape:pageshadow="2"
     inkscape:window-width="1860"
     inkscape:window-height="1059"
     id="namedview63"
     showgrid="false"
     inkscape:zoom="1.3544183"
     inkscape:cx="26.874954"
     inkscape:cy="292.02433"
     inkscape:window-x="1980"
     inkscape:window-y="21"
     inkscape:window-maximized="1"
     inkscape:current-layer="g3" /><g
     id="g3"><path
       d="M28.772,39.031c6.738,0,12.221-5.482,12.221-12.22s-5.482-12.22-12.221-12.22s-12.221,5.482-12.221,12.22   S22.034,39.031,28.772,39.031z M28.772,23.091c2.052,0,3.721,1.669,3.721,3.72s-1.669,3.72-3.721,3.72   c-2.052,0-3.721-1.669-3.721-3.72S26.721,23.091,28.772,23.091z"
       id="path5"
       style="fill:#ffffff;fill-opacity:1" /><path
       d="M59.567,39.031c6.738,0,12.221-5.482,12.221-12.22s-5.482-12.22-12.221-12.22c-6.738,0-12.221,5.482-12.221,12.22   S52.829,39.031,59.567,39.031z M59.567,23.091c2.052,0,3.721,1.669,3.721,3.72s-1.669,3.72-3.721,3.72   c-2.052,0-3.721-1.669-3.721-3.72S57.516,23.091,59.567,23.091z"
       id="path7"
       style="fill:#ffffff;fill-opacity:1" /><path
       d="M90.362,39.031c6.738,0,12.221-5.482,12.221-12.22s-5.483-12.22-12.221-12.22c-6.738,0-12.221,5.482-12.221,12.22   S83.624,39.031,90.362,39.031z M90.362,23.091c2.052,0,3.721,1.669,3.721,3.72s-1.669,3.72-3.721,3.72   c-2.052,0-3.721-1.669-3.721-3.72S88.311,23.091,90.362,23.091z"
       id="path9"
       style="fill:#ffffff;fill-opacity:1" /><path
       d="M271.428,167.667H79.287c-2.347,0-4.25,1.903-4.25,4.25c0,2.347,1.903,4.25,4.25,4.25h192.141   c2.348,0,4.25-1.903,4.25-4.25C275.678,169.569,273.775,167.667,271.428,167.667z"
       id="path11"
       style="fill:#c2d5d8;fill-opacity:1" /><path
       d="M479.893,187.397H356.281V14.27c0-7.138-5.807-12.945-12.944-12.945H12.944C5.807,1.325,0,7.132,0,14.27v278.226   c0,7.138,5.807,12.945,12.944,12.945h123.611v173.127c0,7.138,5.807,12.945,12.945,12.945h330.392   c7.138,0,12.945-5.807,12.945-12.945V200.342C492.838,193.204,487.03,187.397,479.893,187.397z M145.056,294.905h43.942   c2.347,0,4.25-1.903,4.25-4.25c0-2.347-1.903-4.25-4.25-4.25h-43.942v-48.259h339.282v29.42h-63.232c-2.348,0-4.25,1.903-4.25,4.25   s1.902,4.25,4.25,4.25h63.232v183.273H145.056V294.905z M484.338,200.342v9.74H260.974c-2.348,0-4.25,1.903-4.25,4.25   s1.902,4.25,4.25,4.25h223.364v11.063H145.056v-29.304c0-2.451,1.994-4.445,4.445-4.445h330.392   C482.344,195.897,484.338,197.891,484.338,200.342z M149.501,187.397c-5.98,0-11.013,4.083-12.492,9.603H79.287   c-2.347,0-4.25,1.903-4.25,4.25c0,2.347,1.903,4.25,4.25,4.25h57.269v67.767H8.5V108.833h43.941c2.347,0,4.25-1.903,4.25-4.25   c0-2.347-1.903-4.25-4.25-4.25H8.5V52.074h339.281v29.42H284.55c-2.348,0-4.25,1.903-4.25,4.25s1.902,4.25,4.25,4.25h63.231v97.403   H149.501z M12.944,9.825h330.393c2.45,0,4.444,1.994,4.444,4.445v9.74H124.418c-2.347,0-4.25,1.903-4.25,4.25s1.903,4.25,4.25,4.25   h223.363v11.064H8.5V14.27C8.5,11.819,10.494,9.825,12.944,9.825z M12.944,296.941c-2.451,0-4.444-1.994-4.444-4.445v-10.729   h128.056v15.174H12.944z M479.893,483.013H149.501c-2.451,0-4.445-1.994-4.445-4.445v-10.729h339.282v10.729   C484.338,481.019,482.344,483.013,479.893,483.013z"
       id="path13"
       style="fill:#406a80;fill-opacity:1" /><path
       d="M165.329,200.663c-6.738,0-12.221,5.482-12.221,12.22c0,6.738,5.482,12.22,12.221,12.22c6.738,0,12.22-5.482,12.22-12.22   C177.549,206.145,172.067,200.663,165.329,200.663z M165.329,216.603c-2.052,0-3.721-1.669-3.721-3.72   c0-2.051,1.669-3.72,3.721-3.72c2.051,0,3.72,1.669,3.72,3.72C169.049,214.934,167.38,216.603,165.329,216.603z"
       id="path15"
       style="fill:#ffffff;fill-opacity:1" /><path
       d="M196.124,200.663c-6.738,0-12.221,5.482-12.221,12.22c0,6.738,5.482,12.22,12.221,12.22c6.738,0,12.22-5.482,12.22-12.22   C208.344,206.145,202.862,200.663,196.124,200.663z M196.124,216.603c-2.052,0-3.721-1.669-3.721-3.72   c0-2.051,1.669-3.72,3.721-3.72c2.051,0,3.72,1.669,3.72,3.72C199.844,214.934,198.175,216.603,196.124,216.603z"
       id="path17"
       style="fill:#ffffff;fill-opacity:1" /><path
       d="M226.918,200.663c-6.738,0-12.22,5.482-12.22,12.22c0,6.738,5.482,12.22,12.22,12.22c6.738,0,12.221-5.482,12.221-12.22   C239.139,206.145,233.656,200.663,226.918,200.663z M226.918,216.603c-2.051,0-3.72-1.669-3.72-3.72c0-2.051,1.669-3.72,3.72-3.72   c2.052,0,3.721,1.669,3.721,3.72C230.639,214.934,228.97,216.603,226.918,216.603z"
       id="path19"
       style="fill:#ffffff;fill-opacity:1" /><path
       d="M139.973,148.981h129.717c2.348,0,4.25-1.903,4.25-4.25v-38.465c0-2.347-1.902-4.25-4.25-4.25H139.973   c-2.347,0-4.25,1.903-4.25,4.25v38.465C135.723,147.078,137.625,148.981,139.973,148.981z M144.223,110.516h121.217v29.965H144.223   V110.516z"
       id="path21"
       style="fill:#c2d5d8;fill-opacity:1" /><path
       d="M117.544,148.981c2.347,0,4.25-1.903,4.25-4.25v-38.465c0-2.347-1.903-4.25-4.25-4.25H75.799   c-2.347,0-4.25,1.903-4.25,4.25v38.465c0,2.347,1.903,4.25,4.25,4.25H117.544z M80.049,110.516h33.245v29.965H80.049V110.516z"
       id="path23"
       style="fill:#c2d5d8;fill-opacity:1" /><path
       d="M408.094,358.334H215.953c-2.347,0-4.25,1.903-4.25,4.25c0,2.347,1.903,4.25,4.25,4.25h192.141   c2.348,0,4.25-1.903,4.25-4.25C412.344,360.236,410.441,358.334,408.094,358.334z"
       id="path25"
       style="fill:#c2d5d8;fill-opacity:1" /><path
       d="M408.094,387.667H215.953c-2.347,0-4.25,1.903-4.25,4.25c0,2.347,1.903,4.25,4.25,4.25h192.141   c2.348,0,4.25-1.903,4.25-4.25C412.344,389.569,410.441,387.667,408.094,387.667z"
       id="path27"
       style="fill:#c2d5d8;fill-opacity:1" /><path
       d="M276.639,339.648h129.718c2.348,0,4.25-1.903,4.25-4.25v-38.465c0-2.347-1.902-4.25-4.25-4.25H276.639   c-2.348,0-4.25,1.903-4.25,4.25v38.465C272.389,337.745,274.291,339.648,276.639,339.648z M280.889,301.183h121.218v29.965H280.889   V301.183z"
       id="path29"
       style="fill:#c2d5d8;fill-opacity:1" /><path
       d="M254.21,339.648c2.348,0,4.25-1.903,4.25-4.25v-38.465c0-2.347-1.902-4.25-4.25-4.25h-41.745   c-2.347,0-4.25,1.903-4.25,4.25v38.465c0,2.347,1.903,4.25,4.25,4.25H254.21z M216.715,301.183h33.245v29.965h-33.245V301.183z"
       id="path31"
       style="fill:#c2d5d8;fill-opacity:1" /></g><g
     id="g33" /><g
     id="g35" /><g
     id="g37" /><g
     id="g39" /><g
     id="g41" /><g
     id="g43" /><g
     id="g45" /><g
     id="g47" /><g
     id="g49" /><g
     id="g51" /><g
     id="g53" /><g
     id="g55" /><g
     id="g57" /><g
     id="g59" /><g
     id="g61" /></svg>