<?xml version="1.0" encoding="UTF-8" standalone="no"?>
<!-- Generator: Adobe Illustrator 18.0.0, SVG Export Plug-In . SVG Version: 6.00 Build 0)  -->

<svg
   xmlns:dc="http://purl.org/dc/elements/1.1/"
   xmlns:cc="http://creativecommons.org/ns#"
   xmlns:rdf="http://www.w3.org/1999/02/22-rdf-syntax-ns#"
   xmlns:svg="http://www.w3.org/2000/svg"
   xmlns="http://www.w3.org/2000/svg"
   xmlns:sodipodi="http://sodipodi.sourceforge.net/DTD/sodipodi-0.dtd"
   xmlns:inkscape="http://www.inkscape.org/namespaces/inkscape"
   version="1.1"
   id="Capa_1"
   x="0px"
   y="0px"
   viewBox="0 0 488.477 488.477"
   style="enable-background:new 0 0 488.477 488.477;"
   xml:space="preserve"
   inkscape:version="0.91 r13725"
   sodipodi:docname="Landing Page icon.svg"><metadata
     id="metadata49"><rdf:RDF><cc:Work
         rdf:about=""><dc:format>image/svg+xml</dc:format><dc:type
           rdf:resource="http://purl.org/dc/dcmitype/StillImage" /><dc:title></dc:title></cc:Work></rdf:RDF></metadata><defs
     id="defs47" /><sodipodi:namedview
     pagecolor="#ffffff"
     bordercolor="#666666"
     borderopacity="1"
     objecttolerance="10"
     gridtolerance="10"
     guidetolerance="10"
     inkscape:pageopacity="0"
     inkscape:pageshadow="2"
     inkscape:window-width="1860"
     inkscape:window-height="1059"
     id="namedview45"
     showgrid="false"
     inkscape:zoom="1.3665102"
     inkscape:cx="249.1256"
     inkscape:cy="203.0517"
     inkscape:window-x="1980"
     inkscape:window-y="21"
     inkscape:window-maximized="1"
     inkscape:current-layer="g3" /><g
     id="g3"
     style="fill:#c2d5d8;fill-opacity:1"><path
       d="M472.227,35.998H16.25C7.29,35.998,0,43.288,0,52.248v383.98c0,8.96,7.29,16.25,16.25,16.25h455.977   c8.96,0,16.25-7.29,16.25-16.25V52.248C488.477,43.288,481.187,35.998,472.227,35.998z M8.5,387.307h124.842   c2.347,0,4.25-1.902,4.25-4.25c0-2.348-1.903-4.25-4.25-4.25H8.5v-43.5h62.574c2.347,0,4.25-1.902,4.25-4.25   c0-2.348-1.903-4.25-4.25-4.25H8.5v-189.5h48.574c2.347,0,4.25-1.902,4.25-4.25c0-2.348-1.903-4.25-4.25-4.25H8.5v-26.002h471.477   v43.834h-88.882c-2.348,0-4.25,1.902-4.25,4.25c0,2.348,1.902,4.25,4.25,4.25h88.882v201.668H377.405   c-2.348,0-4.25,1.902-4.25,4.25c0,2.348,1.902,4.25,4.25,4.25h102.571v45.998H8.5V387.307z M16.25,44.498h455.977   c4.273,0,7.75,3.477,7.75,7.75v15.057H170.094c-2.347,0-4.25,1.902-4.25,4.25c0,2.348,1.903,4.25,4.25,4.25h309.882v18.5H8.5   V52.248C8.5,47.975,11.977,44.498,16.25,44.498z M472.227,443.979H16.25c-4.273,0-7.75-3.477-7.75-7.75v-16.424h471.477v16.424   C479.977,440.502,476.5,443.979,472.227,443.979z"
       id="path5"
       style="fill:#406a80;fill-opacity:1" /><path
       d="M38.094,84.805c8.409,0,15.25-6.841,15.25-15.25s-6.841-15.25-15.25-15.25c-8.409,0-15.25,6.841-15.25,15.25   S29.686,84.805,38.094,84.805z M38.094,62.805c3.722,0,6.75,3.028,6.75,6.75c0,3.722-3.028,6.75-6.75,6.75   c-3.722,0-6.75-3.028-6.75-6.75C31.344,65.833,34.372,62.805,38.094,62.805z"
       id="path7"
       style="fill:#ffffff;fill-opacity:1" /><path
       d="M80.594,84.805c8.409,0,15.25-6.841,15.25-15.25s-6.841-15.25-15.25-15.25c-8.409,0-15.25,6.841-15.25,15.25   S72.186,84.805,80.594,84.805z M80.594,62.805c3.722,0,6.75,3.028,6.75,6.75c0,3.722-3.028,6.75-6.75,6.75   c-3.722,0-6.75-3.028-6.75-6.75C73.844,65.833,76.872,62.805,80.594,62.805z"
       id="path9"
       style="fill:#ffffff;fill-opacity:1" /><path
       d="M123.094,84.805c8.409,0,15.25-6.841,15.25-15.25s-6.841-15.25-15.25-15.25c-8.409,0-15.25,6.841-15.25,15.25   S114.686,84.805,123.094,84.805z M123.094,62.805c3.722,0,6.75,3.028,6.75,6.75c0,3.722-3.028,6.75-6.75,6.75   c-3.722,0-6.75-3.028-6.75-6.75C116.344,65.833,119.372,62.805,123.094,62.805z"
       id="path11"
       style="fill:#ffffff;fill-opacity:1" /><path
       d="M313.298,220.597c-1.658-1.66-4.352-1.66-6.01,0l-37.526,37.525l0.001-91.378c0-9.82-7.99-17.811-17.813-17.811h-27.125   c-9.821,0-17.811,7.99-17.811,17.811v91.384l-37.528-37.527c-0.797-0.798-1.879-1.245-3.005-1.245   c-1.127,0-2.208,0.447-3.005,1.245l-28.464,28.465c-6.944,6.944-6.944,18.245,0,25.189l90.784,90.783   c3.364,3.365,7.837,5.218,12.595,5.218c4.757,0,9.23-1.853,12.595-5.218l90.783-90.783c3.365-3.364,5.218-7.837,5.218-12.595   c0-4.758-1.853-9.231-5.218-12.595L313.298,220.597z M335.757,268.245l-90.784,90.783c-1.759,1.759-4.097,2.728-6.585,2.728   c-2.487,0-4.825-0.969-6.584-2.728l-56.722-56.722h67.425c2.347,0,4.251-1.902,4.251-4.25c0-2.348-1.904-4.25-4.251-4.25h-75.732   c-0.06,0-0.115,0.016-0.175,0.018l-25.579-25.579c-3.63-3.631-3.63-9.539,0-13.17l25.459-25.459l41.778,41.777   c1.216,1.216,3.044,1.58,4.632,0.922c1.588-0.658,2.624-2.208,2.624-3.927V166.744c0-5.134,4.177-9.311,9.312-9.311h27.125   c5.135,0,9.313,4.177,9.313,9.311l-0.001,101.639c0,1.719,1.035,3.269,2.624,3.927c1.587,0.658,3.416,0.295,4.631-0.922   l41.776-41.775l25.464,25.463c1.759,1.76,2.728,4.098,2.728,6.585S337.516,266.485,335.757,268.245z"
       id="path13"
       style="fill:#c2d5d8;fill-opacity:1" /></g><g
     id="g15" /><g
     id="g17" /><g
     id="g19" /><g
     id="g21" /><g
     id="g23" /><g
     id="g25" /><g
     id="g27" /><g
     id="g29" /><g
     id="g31" /><g
     id="g33" /><g
     id="g35" /><g
     id="g37" /><g
     id="g39" /><g
     id="g41" /><g
     id="g43" /></svg>