<?xml version="1.0" encoding="UTF-8" standalone="no"?>
<!-- Generated by IcoMoon.io -->

<svg
   xmlns:dc="http://purl.org/dc/elements/1.1/"
   xmlns:cc="http://creativecommons.org/ns#"
   xmlns:rdf="http://www.w3.org/1999/02/22-rdf-syntax-ns#"
   xmlns:svg="http://www.w3.org/2000/svg"
   xmlns="http://www.w3.org/2000/svg"
   xmlns:sodipodi="http://sodipodi.sourceforge.net/DTD/sodipodi-0.dtd"
   xmlns:inkscape="http://www.inkscape.org/namespaces/inkscape"
   version="1.1"
   width="512"
   height="512"
   viewBox="0 0 512 512"
   id="svg2"
   inkscape:version="0.91 r13725"
   sodipodi:docname="Tools icon.svg">
  <metadata
     id="metadata14">
    <rdf:RDF>
      <cc:Work
         rdf:about="">
        <dc:format>image/svg+xml</dc:format>
        <dc:type
           rdf:resource="http://purl.org/dc/dcmitype/StillImage" />
        <dc:title></dc:title>
      </cc:Work>
    </rdf:RDF>
  </metadata>
  <defs
     id="defs12" />
  <sodipodi:namedview
     pagecolor="#ffffff"
     bordercolor="#666666"
     borderopacity="1"
     objecttolerance="10"
     gridtolerance="10"
     guidetolerance="10"
     inkscape:pageopacity="0"
     inkscape:pageshadow="2"
     inkscape:window-width="1860"
     inkscape:window-height="1059"
     id="namedview10"
     showgrid="false"
     inkscape:zoom="0.65186407"
     inkscape:cx="75.11004"
     inkscape:cy="181.9285"
     inkscape:window-x="60"
     inkscape:window-y="21"
     inkscape:window-maximized="1"
     inkscape:current-layer="svg2"
     fit-margin-top="0"
     fit-margin-left="0"
     fit-margin-right="0"
     fit-margin-bottom="0" />
  <circle
     style="fill:#c2d5d8"
     cx="256"
     cy="256"
     r="256"
     id="circle3" />
  <path
     inkscape:connector-curvature="0"
     style="fill:#b7c9cc"
     d="m 477.88472,369.34747 c -0.292,-0.824 -0.648,-1.62 -0.984,-2.428 -0.292,-0.836 -0.652,-1.64 -0.992,-2.456 -0.292,-0.836 -0.652,-1.636 -0.992,-2.452 -0.292,-0.84 -0.656,-1.648 -0.996,-2.468 -0.292,-0.828 -0.652,-1.628 -0.988,-2.44 -0.292,-0.836 -0.652,-1.64 -0.992,-2.456 -0.288,-0.836 -0.652,-1.636 -0.992,-2.452 -0.288,-0.84 -0.656,-1.648 -0.996,-2.468 -0.288,-0.828 -0.652,-1.628 -0.988,-2.44 -0.288,-0.836 -0.652,-1.64 -0.988,-2.456 -0.296,-0.848 -0.664,-1.664 -1.012,-2.492 -0.284,-0.82 -0.644,-1.612 -0.976,-2.416 -0.296,-0.84 -0.656,-1.648 -0.996,-2.468 -0.292,-0.828 -0.652,-1.628 -0.988,-2.436 -0.292,-0.836 -0.652,-1.64 -0.992,-2.456 -0.292,-0.836 -0.652,-1.64 -0.992,-2.456 -0.296,-0.84 -0.656,-1.648 -0.996,-2.468 -0.292,-0.828 -0.652,-1.628 -0.988,-2.436 -0.292,-0.836 -0.652,-1.64 -0.992,-2.456 -0.292,-0.836 -0.652,-1.64 -0.992,-2.456 -0.296,-0.84 -0.656,-1.648 -0.996,-2.468 -0.292,-0.828 -0.652,-1.624 -0.988,-2.436 -0.292,-0.836 -0.652,-1.64 -0.992,-2.456 -0.292,-0.836 -0.652,-1.64 -0.992,-2.456 -0.292,-0.836 -0.652,-1.64 -0.992,-2.456 -0.292,-0.84 -0.656,-1.644 -0.996,-2.464 -0.288,-0.828 -0.652,-1.628 -0.988,-2.44 -0.28799,-0.836 -0.65199,-1.64 -0.99199,-2.456 -0.288,-0.836 -0.648,-1.64 -0.988,-2.452 -0.296,-0.84 -0.656,-1.648 -0.996,-2.468 -0.292,-0.828 -0.652,-1.628 -0.988,-2.44 -0.292,-0.836 -0.652,-1.64 -0.992,-2.456 -0.292,-0.836 -0.652,-1.636 -0.992,-2.452 -0.296,-0.84 -0.656,-1.648 -0.996,-2.468 -0.292,-0.828 -0.652,-1.628 -0.988,-2.44 -0.296,-0.848 -0.664,-1.668 -1.008,-2.496 -0.288,-0.82 -0.648,-1.612 -0.98,-2.416 -0.292,-0.836 -0.652,-1.64 -0.992,-2.456 -0.292,-0.84 -0.656,-1.648 -0.996,-2.468 -0.292,-0.828 -0.652,-1.628 -0.988,-2.436 -0.292,-0.84 -0.652,-1.64 -0.992,-2.456 -0.292,-0.836 -0.652,-1.64 -0.992,-2.456 -0.292,-0.84 -0.656,-1.648 -0.996,-2.468 -0.292,-0.828 -0.652,-1.628 -0.988,-2.436 -0.292,-0.836 -0.652,-1.64 -0.992,-2.456 -0.288,-0.836 -0.652,-1.64 -0.992,-2.456 -0.288,-0.84 -0.656,-1.648 -0.996,-2.468 -0.288,-0.828 -0.648,-1.628 -0.988,-2.436 -0.288,-0.836 -0.648,-1.64 -0.988,-2.456 -0.292,-0.836 -0.652,-1.64 -0.992,-2.456 -0.292,-0.836 -0.652,-1.64 -0.992,-2.456 -0.292,-0.84 -0.656,-1.644 -0.996,-2.464 -0.292,-0.828 -0.652,-1.628 -0.988,-2.44 -0.292,-0.836 -0.652,-1.64 -0.992,-2.456 -0.292,-0.836 -0.652,-1.64 -0.992,-2.456 -0.292,-0.84 -0.656,-1.644 -0.996,-2.464 -0.292,-0.828 -0.652,-1.628 -0.988,-2.44 -0.292,-0.836 -0.652,-1.64 -0.992,-2.456 -0.292,-0.836 -0.652,-1.64 -0.992,-2.452 -0.292,-0.844 -0.656,-1.648 -0.996,-2.468 -0.296,-0.84 -0.66,-1.656 -1.004,-2.48 -0.288,-0.82 -0.648,-1.612 -0.98,-2.416 -0.292,-0.836 -0.652,-1.64 -0.992,-2.452 -0.288,-0.836 -0.652,-1.64 -0.992,-2.456 -0.292,-0.84 -0.656,-1.648 -0.996,-2.468 -0.288,-0.828 -0.652,-1.628 -0.988,-2.44 -0.288,-0.836 -0.648,-1.64 -0.988,-2.452 -0.292,-0.836 -0.652,-1.64 -0.992,-2.456 -0.296,-0.84 -0.656,-1.648 -0.996,-2.468 -0.292,-0.828 -0.652,-1.628 -0.988,-2.44 -0.292,-0.836 -0.652,-1.64 -0.992,-2.452 -0.292,-0.836 -0.652,-1.64 -0.992,-2.456 -0.296,-0.84 -0.656,-1.648 -0.996,-2.468 -0.292,-0.828 -0.652,-1.628 -0.988,-2.44 -0.292,-0.836 -0.652,-1.64 -0.992,-2.452 -0.292,-0.836 -0.652,-1.64 -0.992,-2.456 -0.292,-0.836 -0.652,-1.64 -0.992,-2.456 -0.296,-0.84 -0.656,-1.648 -0.996,-2.468 -0.292,-0.828 -0.652,-1.624 -0.988,-2.436 -0.292,-0.836 -0.652,-1.64 -0.992,-2.456 -0.292,-0.836 -0.652,-1.64 -0.992,-2.456 -0.296,-0.836 -0.656,-1.648 -0.996,-2.468 -0.288,-0.828 -0.652,-1.624 -0.988,-2.436 -0.288,-0.836 -0.652,-1.64 -0.992,-2.456 -0.288,-0.836 -0.648,-1.636 -0.992,-2.456 -0.5,-1.416 -1.064,-2.804 -1.688,-4.172 -0.092,-0.248 -0.2,-0.492 -0.296,-0.74 -0.292,-0.836 -0.652,-1.64 -0.992,-2.456 -0.292,-0.836 -0.652,-1.64 -0.992,-2.452 -0.292,-0.844 -0.656,-1.648 -0.996,-2.468 -0.292,-0.828 -0.652,-1.628 -0.988,-2.44 -0.292,-0.836 -0.652,-1.64 -0.992,-2.456 -0.292,-0.836 -0.652,-1.64 -0.992,-2.452 -0.292,-0.836 -0.652,-1.64 -0.992,-2.46 -0.292,-0.836 -0.656,-1.644 -0.996,-2.464 -0.292,-0.828 -0.652,-1.628 -0.988,-2.44 -0.292,-0.836 -0.652,-1.64 -0.992,-2.452 -6.888,-19.6 -26.584,-34.4 -47.576,-34.4 l -12,0 -116.00001,0 -36,0 c -1.344,0 -2.68,0.08 -4.008,0.204 -0.468,0.04 -0.928,0.1 -1.404,0.156 -0.852,0.104 -1.704,0.236 -2.548,0.384 -0.548,0.092 -1.092,0.196 -1.636,0.312 -0.8,0.172 -1.592,0.376 -2.392,0.584 -0.504,0.132 -1.008,0.252 -1.504,0.4 -0.012,0.008 -0.024,0.008 -0.032,0.008 0,0 0,0 0,0.008 -18.324,5.552 -33.412,21.804 -36.192,40.956 l -28.259993,183.784 c -1.316,4.168 -2.032,8.6 -2.032,13.204 l 0,20 c 0,6.376 1.396,12.42 3.84399,17.904 0.312,0.828 0.628,1.648 0.992,2.452 0.312,0.832 0.632,1.66 0.996,2.468 0.308,0.824 0.624,1.64 0.988,2.44 0.308,0.828 0.628,1.652 0.988,2.452 0.312,0.828 0.632,1.652 0.992,2.456 0.312,0.828 0.632,1.652 0.992,2.456 0.312003,0.832 0.636003,1.66 0.996003,2.468 0.312,0.824 0.628,1.64 0.988,2.436 0.312,0.828 0.632,1.652 0.992,2.456 0.312,0.828 0.632,1.652 0.992,2.456 0.316,0.844 0.644,1.684 1.016,2.504 0.304,0.812 0.616,1.616 0.972,2.408 0.312,0.828 0.632,1.652 0.992,2.456 0.312,0.828 0.632,1.652 0.992,2.456 0.312,0.832 0.636,1.66 0.996,2.468 0.312,0.824 0.628,1.64 0.988,2.436 0.312,0.828 0.632,1.652 0.992,2.456 0.312,0.828 0.632,1.652 0.992,2.456 0.312,0.832 0.636,1.66 0.996,2.468 0.312,0.824 0.624,1.636 0.988,2.436 0.312,0.828 0.628,1.652 0.992,2.456 0.308,0.828 0.628,1.652 0.992,2.456 0.308,0.828 0.628,1.652 0.988,2.456 0.312,0.832 0.636,1.656 0.996,2.464 0.312,0.824 0.628,1.64 0.988,2.44 0.312,0.828 0.632,1.652 0.992,2.456 0.312,0.828 0.632,1.652 0.992,2.452 0.312,0.832 0.636,1.66 0.996,2.468 0.312,0.824 0.628,1.64 0.988,2.44 0.312,0.828 0.632,1.652 0.992,2.456 0.312,0.828 0.632,1.652 0.992,2.452 0.312,0.832 0.636,1.66 0.996,2.468 0.312,0.824 0.628,1.64 0.988,2.44 0.312,0.828 0.632,1.652 0.992,2.456 0.312,0.828 0.632,1.652 0.992,2.452 0.316,0.84 0.64,1.676 1.008,2.492 0.308,0.82 0.628,1.636 0.984,2.432 0.312,0.824 0.628,1.64 0.988,2.436 0.312,0.828 0.628,1.652 0.992,2.456 0.312,0.828 0.628,1.652 0.992,2.456 0.308,0.832 0.632,1.66 0.996,2.468 0.128,0.352 0.28,0.692 0.416,1.04 35.08,17.964 74.848,28.232 117.036,28.232 97.76401,0 182.70401,-54.824 225.824,-135.388 z"
     id="path5" />
  <path
     d="m 292.42045,262.03046 -17.29139,16.52495 17.29139,16.52495 -23.05519,22.03328 82.61445,78.95255 c 11.52759,11.01663 28.81899,11.01663 40.34659,0 11.52759,-11.01664 11.52759,-27.54159 0,-38.55823 l -99.90585,-95.4775 z m 74.92938,124.8552 c -7.68507,0 -15.37012,-5.50832 -15.37012,-14.68885 0,-7.34442 5.76379,-14.68885 15.37012,-14.68885 9.60633,0 15.37013,5.50832 15.37013,14.68885 0,9.18053 -5.7638,14.68885 -15.37013,14.68885 z"
     id="path4"
     inkscape:connector-curvature="0"
     style="fill:#406a80;fill-opacity:1" />
  <path
     d="m 163.69563,258.35825 17.29139,-11.01664 28.81898,-31.2138 17.29141,16.52496 17.29139,-16.52496 -1.92126,-1.8361 c 3.84252,-9.18053 5.76379,-18.36106 5.76379,-29.3777 0,-40.39432 -34.58279,-73.44423 -76.85064,-73.44423 -11.5276,0 -21.13393,1.8361 -30.74026,5.50832 l 55.71671,53.24707 -40.34658,38.55822 -55.71672,-53.24707 c -3.842533,9.18053 -5.763803,18.36106 -5.763803,29.37769 0,38.55823 30.740263,67.93592 69.165593,73.44424 z"
     id="path6"
     inkscape:connector-curvature="0"
     style="fill:#406a80;fill-opacity:1" />
  <path
     d="m 248.23133,309.76921 17.29139,-14.68885 -17.29139,-16.52495 109.51217,-104.65803 23.0552,-7.34443 21.13392,-40.39432 -13.44886,-12.85275 -44.18912,18.36107 -9.60634,22.03327 L 227.09741,258.35825 209.806,241.8333 194.43589,258.35825 c 0,0 15.37011,11.01663 -1.92127,27.54159 -9.60633,9.18052 -24.97646,-1.83611 -53.79545,25.70548 -9.60634,9.18053 -40.346593,38.55822 -40.346593,38.55822 0,0 -11.5276,18.36106 11.527593,40.39433 23.0552,22.03327 42.26786,11.01663 42.26786,11.01663 0,0 30.74026,-29.37769 40.34659,-38.55822 26.89772,-25.70548 17.29138,-42.23043 24.97645,-49.57486 17.2914,-16.52495 30.74026,-3.67221 30.74026,-3.67221 z m -59.55925,-7.34442 13.44887,12.85274 -73.00812,69.77202 -13.44886,-12.85274 z"
     id="path8"
     inkscape:connector-curvature="0"
     style="fill:#406a80;fill-opacity:1" />
  <circle
     style="fill:#f5f5f5"
     cx="369.89423"
     cy="372.93039"
     r="16.931875"
     id="circle17" />
  <ellipse
     style="fill:#f5f5f5"
     cx="360.54202"
     cy="119.31998"
     id="circle17-3"
     rx="13.86375"
     ry="57.584522"
     transform="matrix(0.68433588,0.72916692,-0.72916692,0.68433588,0,0)" />
</svg>
